<!-- <svg xmlns="http://www.w3.org/2000/svg" viewBox="0 0 841.9 595.3">
    <g fill="#61DAFB">
        <path d="M666.3 296.5c0-32.5-40.7-63.3-103.1-82.4 14.4-63.6 8-114.2-20.2-130.4-6.5-3.8-14.1-5.6-22.4-5.6v22.3c4.6 0 8.3.9 11.4 2.6 13.6 7.8 19.5 37.5 14.9 75.7-1.1 9.4-2.9 19.3-5.1 29.4-19.6-4.8-41-8.5-63.5-10.9-13.5-18.5-27.5-35.3-41.6-50 32.6-30.3 63.2-46.9 84-46.9V78c-27.5 0-63.5 19.6-99.9 53.6-36.4-33.8-72.4-53.2-99.9-53.2v22.3c20.7 0 51.4 16.5 84 46.6-14 14.7-28 31.4-41.3 49.9-22.6 2.4-44 6.1-63.6 11-2.3-10-4-19.7-5.2-29-4.7-38.2 1.1-67.9 14.6-75.8 3-1.8 6.9-2.6 11.5-2.6V78.5c-8.4 0-16 1.8-22.6 5.6-28.1 16.2-34.4 66.7-19.9 130.1-62.2 19.2-102.7 49.9-102.7 82.3 0 32.5 40.7 63.3 103.1 82.4-14.4 63.6-8 114.2 20.2 130.4 6.5 3.8 14.1 5.6 22.5 5.6 27.5 0 63.5-19.6 99.9-53.6 36.4 33.8 72.4 53.2 99.9 53.2 8.4 0 16-1.8 22.6-5.6 28.1-16.2 34.4-66.7 19.9-130.1 62-19.1 102.5-49.9 102.5-82.3zm-130.2-66.7c-3.7 12.9-8.3 26.2-13.5 39.5-4.1-8-8.4-16-13.1-24-4.6-8-9.5-15.8-14.4-23.4 14.2 2.1 27.9 4.7 41 7.9zm-45.8 106.5c-7.8 13.5-15.8 26.3-24.1 38.2-14.9 1.3-30 2-45.2 2-15.1 0-30.2-.7-45-1.9-8.3-11.9-16.4-24.6-24.2-38-7.6-13.1-14.5-26.4-20.8-39.8 6.2-13.4 13.2-26.8 20.7-39.9 7.8-13.5 15.8-26.3 24.1-38.2 14.9-1.3 30-2 45.2-2 15.1 0 30.2.7 45 1.9 8.3 11.9 16.4 24.6 24.2 38 7.6 13.1 14.5 26.4 20.8 39.8-6.3 13.4-13.2 26.8-20.7 39.9zm32.3-13c5.4 13.4 10 26.8 13.8 39.8-13.1 3.2-26.9 5.9-41.2 8 4.9-7.7 9.8-15.6 14.4-23.7 4.6-8 8.9-16.1 13-24.1zM421.2 430c-9.3-9.6-18.6-20.3-27.8-32 9 .4 18.2.7 27.5.7 9.4 0 18.7-.2 27.8-.7-9 11.7-18.3 22.4-27.5 32zm-74.4-58.9c-14.2-2.1-27.9-4.7-41-7.9 3.7-12.9 8.3-26.2 13.5-39.5 4.1 8 8.4 16 13.1 24 4.7 8 9.5 15.8 14.4 23.4zM420.7 163c9.3 9.6 18.6 20.3 27.8 32-9-.4-18.2-.7-27.5-.7-9.4 0-18.7.2-27.8.7 9-11.7 18.3-22.4 27.5-32zm-74 58.9c-4.9 7.7-9.8 15.6-14.4 23.7-4.6 8-8.9 16-13 24-5.4-13.4-10-26.8-13.8-39.8 13.1-3.1 26.9-5.8 41.2-7.9zm-90.5 125.2c-35.4-15.1-58.3-34.9-58.3-50.6 0-15.7 22.9-35.6 58.3-50.6 8.6-3.7 18-7 27.7-10.1 5.7 19.6 13.2 40 22.5 60.9-9.2 20.8-16.6 41.1-22.2 60.6-9.9-3.1-19.3-6.5-28-10.2zM310 490c-13.6-7.8-19.5-37.5-14.9-75.7 1.1-9.4 2.9-19.3 5.1-29.4 19.6 4.8 41 8.5 63.5 10.9 13.5 18.5 27.5 35.3 41.6 50-32.6 30.3-63.2 46.9-84 46.9-4.5-.1-8.3-1-11.3-2.7zm237.2-76.2c4.7 38.2-1.1 67.9-14.6 75.8-3 1.8-6.9 2.6-11.5 2.6-20.7 0-51.4-16.5-84-46.6 14-14.7 28-31.4 41.3-49.9 22.6-2.4 44-6.1 63.6-11 2.3 10.1 4.1 19.8 5.2 29.1zm38.5-66.7c-8.6 3.7-18 7-27.7 10.1-5.7-19.6-13.2-40-22.5-60.9 9.2-20.8 16.6-41.1 22.2-60.6 9.9 3.1 19.3 6.5 28.1 10.2 35.4 15.1 58.3 34.9 58.3 50.6-.1 15.7-23 35.6-58.4 50.6zM320.8 78.4z"/>
        <circle cx="420.9" cy="296.5" r="45.7"/>
        <path d="M520.5 78.1z"/>
    </g>
</svg> -->

<svg t="1543371638401" class="icon" style="" viewBox="0 0 1024 1024" version="1.1" xmlns="http://www.w3.org/2000/svg" p-id="1451" xmlns:xlink="http://www.w3.org/1999/xlink" width="64" height="64"><defs><style type="text/css"></style></defs><path d="M1023.786667 611.84c-0.426667 9.770667-13.354667 20.693333-39.893334 34.56-54.613333 28.458667-337.749333 144.896-397.994666 176.298667-60.288 31.402667-93.738667 31.104-141.354667 8.32-47.616-22.741333-348.842667-144.469333-403.114667-170.368-27.093333-12.970667-40.917333-23.893333-41.386666-34.218667v103.509333c0 10.325333 14.250667 21.290667 41.386666 34.261334 54.272 25.941333 355.541333 147.626667 403.114667 170.368 47.616 22.784 81.066667 23.082667 141.354667-8.362667 60.245333-31.402667 343.338667-147.797333 397.994666-176.298667 27.776-14.464 40.106667-25.728 40.106667-35.925333v-102.058667l-0.213333-0.085333z" fill="#d81e06" p-id="1452"></path><path d="M1023.744 443.093333c-0.426667 9.770667-13.354667 20.650667-39.850667 34.517334-54.613333 28.458667-337.749333 144.896-397.994666 176.298666-60.288 31.402667-93.738667 31.104-141.354667 8.362667-47.616-22.741333-348.842667-144.469333-403.114667-170.410667-27.093333-12.928-40.917333-23.893333-41.386666-34.176v103.509334c0 10.325333 14.250667 21.248 41.386666 34.218666 54.272 25.941333 355.498667 147.626667 403.114667 170.368 47.616 22.784 81.066667 23.082667 141.354667-8.32 60.245333-31.402667 343.338667-147.84 397.994666-176.298666 27.776-14.506667 40.106667-25.770667 40.106667-35.968v-102.058667l-0.256-0.042667z" fill="#d81e06" p-id="1453"></path><path d="M1023.744 268.074667c0.512-10.410667-13.098667-19.541333-40.490667-29.610667-53.248-19.498667-334.634667-131.498667-388.522666-151.253333-53.888-19.712-75.818667-18.901333-139.093334 3.84C392.234667 113.706667 92.629333 231.253333 39.338667 252.074667c-26.666667 10.496-39.68 20.181333-39.253334 30.506666V386.133333c0 10.325333 14.250667 21.248 41.386667 34.218667 54.272 25.941333 355.498667 147.669333 403.114667 170.410667 47.616 22.741333 81.066667 23.04 141.354666-8.362667 60.245333-31.402667 343.338667-147.84 397.994667-176.298667 27.776-14.506667 40.106667-25.770667 40.106667-35.968V268.074667h-0.341334zM366.72 366.08l237.269333-36.437333-71.68 105.088-165.546666-68.650667z m524.8-94.634667l-140.330667 55.466667-15.232 5.973333-140.245333-55.466666 155.392-61.44 140.373333 55.466666z m-411.989333-101.674666l-22.954667-42.325334 71.594667 27.989334 67.498666-22.101334-18.261333 43.733334 68.778667 25.770666-88.704 9.216-19.882667 47.786667-32.085333-53.290667-102.4-9.216 76.416-27.562666z m-176.768 59.733333c70.058667 0 126.805333 21.973333 126.805333 49.109333s-56.746667 49.152-126.805333 49.152-126.848-22.058667-126.848-49.152c0-27.136 56.789333-49.152 126.848-49.152z" fill="#d81e06" p-id="1454"></path></svg>